# Blender 4.3.2
# www.blender.org
mtllib Window.mtl
o Sphere
v -0.500000 0.680903 -0.706899
v -0.587938 0.534982 -0.831225
v -0.653282 0.368502 -0.923608
v -0.693520 0.187861 -0.980497
v -0.707107 0.000000 -0.999706
v -0.693520 -0.187861 -0.980497
v -0.392848 0.680903 -0.831225
v -0.461940 0.534982 -0.977417
v -0.513280 0.368502 -1.086048
v -0.544895 0.187861 -1.152942
v -0.555570 0.000000 -1.175530
v -0.544895 -0.187861 -1.152942
v -0.270598 0.680903 -0.923608
v -0.318190 0.534982 -1.086048
v -0.353554 0.368502 -1.206752
v -0.375330 0.187861 -1.281081
v -0.382683 0.000000 -1.306179
v -0.375330 -0.187861 -1.281081
v -0.137950 0.680903 -0.980497
v -0.162212 0.534982 -1.152942
v -0.180240 0.368502 -1.281081
v -0.191342 0.187861 -1.359988
v -0.195090 0.000000 -1.386632
v -0.191342 -0.187861 -1.359988
v -0.000000 0.680903 -0.999706
v -0.000000 0.534982 -1.175530
v -0.000000 0.368502 -1.306179
v -0.000000 0.187861 -1.386632
v -0.000000 0.000000 -1.413797
v -0.000000 -0.187861 -1.386632
v 0.137949 0.680903 -0.980497
v 0.162211 0.534982 -1.152942
v 0.180239 0.368502 -1.281081
v 0.191341 0.187861 -1.359988
v 0.195090 0.000000 -1.386631
v 0.191341 -0.187861 -1.359988
v 0.270598 0.680903 -0.923608
v 0.318189 0.534982 -1.086048
v 0.353553 0.368502 -1.206752
v 0.375330 0.187861 -1.281081
v 0.382683 0.000000 -1.306178
v 0.375330 -0.187861 -1.281081
v 0.392847 0.680903 -0.831225
v 0.461939 0.534982 -0.977417
v 0.513279 0.368502 -1.086048
v 0.544895 0.187861 -1.152942
v 0.555570 0.000000 -1.175529
v 0.544895 -0.187861 -1.152942
v 0.500000 0.680903 -0.706899
v 0.587937 0.534982 -0.831225
v 0.653281 0.368502 -0.923608
v 0.693519 0.187861 -0.980497
v 0.707106 0.000000 -0.999705
v 0.693519 -0.187861 -0.980497
vn -0.5322 0.7116 -0.4587
vn -0.6323 0.5506 -0.5450
vn -0.7094 0.3506 -0.6114
vn -0.7520 0.1207 -0.6481
vn -0.7520 -0.1207 -0.6481
vn -0.5596 0.3722 -0.7405
vn -0.5979 0.1291 -0.7911
vn -0.5979 -0.1291 -0.7911
vn -0.4086 0.7353 -0.5408
vn -0.4924 0.5770 -0.6516
vn -0.2584 0.7551 -0.6026
vn -0.3153 0.6000 -0.7352
vn -0.3627 0.3917 -0.8456
vn -0.3904 0.1369 -0.9104
vn -0.3904 -0.1369 -0.9104
vn -0.1365 0.1418 -0.9804
vn -0.1365 -0.1418 -0.9804
vn -0.0886 0.7665 -0.6361
vn -0.1089 0.6137 -0.7820
vn -0.1262 0.4036 -0.9062
vn 0.0886 0.7665 -0.6361
vn 0.1089 0.6137 -0.7820
vn 0.1262 0.4036 -0.9062
vn 0.1365 0.1418 -0.9804
vn 0.1365 -0.1418 -0.9804
vn 0.3904 0.1369 -0.9104
vn 0.3904 -0.1369 -0.9104
vn 0.2584 0.7551 -0.6026
vn 0.3153 0.6000 -0.7352
vn 0.3627 0.3917 -0.8456
vn 0.4086 0.7352 -0.5408
vn 0.4924 0.5770 -0.6516
vn 0.5596 0.3722 -0.7405
vn 0.5979 0.1291 -0.7911
vn 0.5979 -0.1291 -0.7911
vn 0.7520 -0.1206 -0.6481
vn 0.5322 0.7116 -0.4587
vn 0.6323 0.5506 -0.5450
vn 0.7094 0.3506 -0.6114
vn 0.7520 0.1206 -0.6481
vt 0.375000 0.687500
vt 0.375000 0.750000
vt 0.343750 0.750000
vt 0.343750 0.687500
vt 0.375000 0.625000
vt 0.343750 0.625000
vt 0.375000 0.562500
vt 0.343750 0.562500
vt 0.375000 0.500000
vt 0.343750 0.500000
vt 0.375000 0.437500
vt 0.343750 0.437500
vt 0.312500 0.625000
vt 0.312500 0.562500
vt 0.312500 0.500000
vt 0.312500 0.437500
vt 0.312500 0.750000
vt 0.312500 0.687500
vt 0.281250 0.750000
vt 0.281250 0.687500
vt 0.281250 0.625000
vt 0.281250 0.562500
vt 0.281250 0.500000
vt 0.281250 0.437500
vt 0.250000 0.562500
vt 0.250000 0.500000
vt 0.250000 0.437500
vt 0.250000 0.750000
vt 0.250000 0.687500
vt 0.250000 0.625000
vt 0.218750 0.750000
vt 0.218750 0.687500
vt 0.218750 0.625000
vt 0.218750 0.562500
vt 0.218750 0.500000
vt 0.218750 0.437500
vt 0.187500 0.562500
vt 0.187500 0.500000
vt 0.187500 0.437500
vt 0.187500 0.750000
vt 0.187500 0.687500
vt 0.187500 0.625000
vt 0.156250 0.750000
vt 0.156250 0.687500
vt 0.156250 0.625000
vt 0.156250 0.562500
vt 0.156250 0.500000
vt 0.156250 0.437500
vt 0.125000 0.500000
vt 0.125000 0.437500
vt 0.125000 0.750000
vt 0.125000 0.687500
vt 0.125000 0.625000
vt 0.125000 0.562500
s 0
usemtl Material
f 2/1/1 1/2/1 7/3/1 8/4/1
f 3/5/2 2/1/2 8/4/2 9/6/2
f 4/7/3 3/5/3 9/6/3 10/8/3
f 5/9/4 4/7/4 10/8/4 11/10/4
f 6/11/5 5/9/5 11/10/5 12/12/5
f 10/8/6 9/6/6 15/13/6 16/14/6
f 11/10/7 10/8/7 16/14/7 17/15/7
f 12/12/8 11/10/8 17/15/8 18/16/8
f 8/4/9 7/3/9 13/17/9 14/18/9
f 9/6/10 8/4/10 14/18/10 15/13/10
f 14/18/11 13/17/11 19/19/11 20/20/11
f 15/13/12 14/18/12 20/20/12 21/21/12
f 16/14/13 15/13/13 21/21/13 22/22/13
f 17/15/14 16/14/14 22/22/14 23/23/14
f 18/16/15 17/15/15 23/23/15 24/24/15
f 23/23/16 22/22/16 28/25/16 29/26/16
f 24/24/17 23/23/17 29/26/17 30/27/17
f 20/20/18 19/19/18 25/28/18 26/29/18
f 21/21/19 20/20/19 26/29/19 27/30/19
f 22/22/20 21/21/20 27/30/20 28/25/20
f 26/29/21 25/28/21 31/31/21 32/32/21
f 27/30/22 26/29/22 32/32/22 33/33/22
f 28/25/23 27/30/23 33/33/23 34/34/23
f 29/26/24 28/25/24 34/34/24 35/35/24
f 30/27/25 29/26/25 35/35/25 36/36/25
f 35/35/26 34/34/26 40/37/26 41/38/26
f 36/36/27 35/35/27 41/38/27 42/39/27
f 32/32/28 31/31/28 37/40/28 38/41/28
f 33/33/29 32/32/29 38/41/29 39/42/29
f 34/34/30 33/33/30 39/42/30 40/37/30
f 38/41/31 37/40/31 43/43/31 44/44/31
f 39/42/32 38/41/32 44/44/32 45/45/32
f 40/37/33 39/42/33 45/45/33 46/46/33
f 41/38/34 40/37/34 46/46/34 47/47/34
f 42/39/35 41/38/35 47/47/35 48/48/35
f 48/48/36 47/47/36 53/49/36 54/50/36
f 44/44/37 43/43/37 49/51/37 50/52/37
f 45/45/38 44/44/38 50/52/38 51/53/38
f 46/46/39 45/45/39 51/53/39 52/54/39
f 47/47/40 46/46/40 52/54/40 53/49/40
